<?xml version="1.0" encoding="UTF-8"?>
<svg xmlns="http://www.w3.org/2000/svg" viewBox="0 0 100 140" role="img" aria-hidden="true">
  
  <rect x="5" y="5" width="90" height="130" rx="12" fill="#fffdfa" stroke="#c53a2f" stroke-width="2.6"/>
  <rect x="10" y="10" width="80" height="120" rx="9" fill="none" stroke="#c53a2f" stroke-opacity="0.17" stroke-width="1.1"/>
  
  <g><text x="20" y="22" text-anchor="middle" dominant-baseline="middle" font-size="11" font-weight="800" fill="#c53a2f" font-family="Arial, Helvetica, sans-serif">10</text><g transform="translate(20 32) scale(0.14) translate(-50 -50)" fill="#c53a2f"><path d="M50 84 C22 59 13 43 20 29 C25 18 39 17 50 32 C61 17 75 18 80 29 C87 43 78 59 50 84 Z" /></g></g><g transform="rotate(180 80 111)"><text x="80" y="111" text-anchor="middle" dominant-baseline="middle" font-size="11" font-weight="800" fill="#c53a2f" font-family="Arial, Helvetica, sans-serif">10</text><g transform="translate(80 121) scale(0.14) translate(-50 -50)" fill="#c53a2f"><path d="M50 84 C22 59 13 43 20 29 C25 18 39 17 50 32 C61 17 75 18 80 29 C87 43 78 59 50 84 Z" /></g></g><g transform="translate(31 19) scale(0.23) translate(-50 -50)" fill="#c53a2f"><path d="M50 84 C22 59 13 43 20 29 C25 18 39 17 50 32 C61 17 75 18 80 29 C87 43 78 59 50 84 Z" /></g><g transform="translate(69 19) scale(0.23) translate(-50 -50)" fill="#c53a2f"><path d="M50 84 C22 59 13 43 20 29 C25 18 39 17 50 32 C61 17 75 18 80 29 C87 43 78 59 50 84 Z" /></g><g transform="translate(31 37) scale(0.23) translate(-50 -50)" fill="#c53a2f"><path d="M50 84 C22 59 13 43 20 29 C25 18 39 17 50 32 C61 17 75 18 80 29 C87 43 78 59 50 84 Z" /></g><g transform="translate(69 37) scale(0.23) translate(-50 -50)" fill="#c53a2f"><path d="M50 84 C22 59 13 43 20 29 C25 18 39 17 50 32 C61 17 75 18 80 29 C87 43 78 59 50 84 Z" /></g><g transform="translate(31 56) scale(0.23) translate(-50 -50)" fill="#c53a2f"><path d="M50 84 C22 59 13 43 20 29 C25 18 39 17 50 32 C61 17 75 18 80 29 C87 43 78 59 50 84 Z" /></g><g transform="translate(69 56) scale(0.23) translate(-50 -50)" fill="#c53a2f"><path d="M50 84 C22 59 13 43 20 29 C25 18 39 17 50 32 C61 17 75 18 80 29 C87 43 78 59 50 84 Z" /></g><g transform="translate(31 84) scale(0.23) translate(-50 -50)" fill="#c53a2f"><path d="M50 84 C22 59 13 43 20 29 C25 18 39 17 50 32 C61 17 75 18 80 29 C87 43 78 59 50 84 Z" /></g><g transform="translate(69 84) scale(0.23) translate(-50 -50)" fill="#c53a2f"><path d="M50 84 C22 59 13 43 20 29 C25 18 39 17 50 32 C61 17 75 18 80 29 C87 43 78 59 50 84 Z" /></g><g transform="translate(31 103) scale(0.23) translate(-50 -50)" fill="#c53a2f"><path d="M50 84 C22 59 13 43 20 29 C25 18 39 17 50 32 C61 17 75 18 80 29 C87 43 78 59 50 84 Z" /></g><g transform="translate(69 103) scale(0.23) translate(-50 -50)" fill="#c53a2f"><path d="M50 84 C22 59 13 43 20 29 C25 18 39 17 50 32 C61 17 75 18 80 29 C87 43 78 59 50 84 Z" /></g>
</svg>