<?xml version="1.0" encoding="UTF-8"?>
<svg xmlns="http://www.w3.org/2000/svg" viewBox="0 0 100 140" role="img">
  <rect x="5" y="6" width="90" height="128" rx="13" fill="rgba(17,17,17,.12)" />
  <rect x="4" y="4" width="92" height="130" rx="13" fill="#fffdf8" stroke="#1e2f58" stroke-width="2.3" />
  <rect x="7" y="7" width="86" height="124" rx="11" fill="none" stroke="#d5b56b" stroke-width="1.15" />
  <rect x="11" y="11" width="78" height="116" rx="9" fill="none" stroke="rgba(30,47,88,.18)" stroke-width="1.1" />
  <g><text x="20" y="22" text-anchor="middle" dominant-baseline="middle" font-size="11" font-weight="900" fill="#181818">5</text><g fill="#181818"><g transform="translate(20 29) scale(0.15) translate(-50 -50)"><circle cx="50" cy="27" r="17" /><circle cx="34" cy="49" r="17" /><circle cx="66" cy="49" r="17" /><path d="M46 58 C45 70 37 78 31 85 L69 85 C63 78 55 70 54 58 Z" /></g></g></g><g transform="rotate(180 80 111)"><text x="80" y="111" text-anchor="middle" dominant-baseline="middle" font-size="11" font-weight="900" fill="#181818">5</text><g fill="#181818"><g transform="translate(80 118) scale(0.15) translate(-50 -50)"><circle cx="50" cy="27" r="17" /><circle cx="34" cy="49" r="17" /><circle cx="66" cy="49" r="17" /><path d="M46 58 C45 70 37 78 31 85 L69 85 C63 78 55 70 54 58 Z" /></g></g></g><g fill="#181818"><g transform="translate(31 40) scale(0.31) translate(-50 -50)"><circle cx="50" cy="27" r="17" /><circle cx="34" cy="49" r="17" /><circle cx="66" cy="49" r="17" /><path d="M46 58 C45 70 37 78 31 85 L69 85 C63 78 55 70 54 58 Z" /></g></g><g fill="#181818"><g transform="translate(69 40) scale(0.31) translate(-50 -50)"><circle cx="50" cy="27" r="17" /><circle cx="34" cy="49" r="17" /><circle cx="66" cy="49" r="17" /><path d="M46 58 C45 70 37 78 31 85 L69 85 C63 78 55 70 54 58 Z" /></g></g><g fill="#181818"><g transform="translate(50 69) scale(0.34) translate(-50 -50)"><circle cx="50" cy="27" r="17" /><circle cx="34" cy="49" r="17" /><circle cx="66" cy="49" r="17" /><path d="M46 58 C45 70 37 78 31 85 L69 85 C63 78 55 70 54 58 Z" /></g></g><g fill="#181818"><g transform="translate(31 98) scale(0.31) translate(-50 -50)"><circle cx="50" cy="27" r="17" /><circle cx="34" cy="49" r="17" /><circle cx="66" cy="49" r="17" /><path d="M46 58 C45 70 37 78 31 85 L69 85 C63 78 55 70 54 58 Z" /></g></g><g fill="#181818"><g transform="translate(69 98) scale(0.31) translate(-50 -50)"><circle cx="50" cy="27" r="17" /><circle cx="34" cy="49" r="17" /><circle cx="66" cy="49" r="17" /><path d="M46 58 C45 70 37 78 31 85 L69 85 C63 78 55 70 54 58 Z" /></g></g>
</svg>