<?xml version="1.0" encoding="UTF-8"?>
<svg xmlns="http://www.w3.org/2000/svg" viewBox="0 0 100 140" role="img" aria-hidden="true">
  
  <rect x="5" y="5" width="90" height="130" rx="12" fill="#fffdfa" stroke="#151515" stroke-width="2.6"/>
  <rect x="10" y="10" width="80" height="120" rx="9" fill="none" stroke="#151515" stroke-opacity="0.17" stroke-width="1.1"/>
  
  <g><text x="20" y="22" text-anchor="middle" dominant-baseline="middle" font-size="11" font-weight="800" fill="#151515" font-family="Arial, Helvetica, sans-serif">5</text><g transform="translate(20 32) scale(0.14) translate(-50 -50)" fill="#151515"><circle cx="50" cy="27" r="17" /><circle cx="34" cy="49" r="17" /><circle cx="66" cy="49" r="17" /><path d="M46 58 C45 70 37 78 31 85 L69 85 C63 78 55 70 54 58 Z" /></g></g><g transform="rotate(180 80 111)"><text x="80" y="111" text-anchor="middle" dominant-baseline="middle" font-size="11" font-weight="800" fill="#151515" font-family="Arial, Helvetica, sans-serif">5</text><g transform="translate(80 121) scale(0.14) translate(-50 -50)" fill="#151515"><circle cx="50" cy="27" r="17" /><circle cx="34" cy="49" r="17" /><circle cx="66" cy="49" r="17" /><path d="M46 58 C45 70 37 78 31 85 L69 85 C63 78 55 70 54 58 Z" /></g></g><g transform="translate(31 38) scale(0.31) translate(-50 -50)" fill="#151515"><circle cx="50" cy="27" r="17" /><circle cx="34" cy="49" r="17" /><circle cx="66" cy="49" r="17" /><path d="M46 58 C45 70 37 78 31 85 L69 85 C63 78 55 70 54 58 Z" /></g><g transform="translate(69 38) scale(0.31) translate(-50 -50)" fill="#151515"><circle cx="50" cy="27" r="17" /><circle cx="34" cy="49" r="17" /><circle cx="66" cy="49" r="17" /><path d="M46 58 C45 70 37 78 31 85 L69 85 C63 78 55 70 54 58 Z" /></g><g transform="translate(50 70) scale(0.35) translate(-50 -50)" fill="#151515"><circle cx="50" cy="27" r="17" /><circle cx="34" cy="49" r="17" /><circle cx="66" cy="49" r="17" /><path d="M46 58 C45 70 37 78 31 85 L69 85 C63 78 55 70 54 58 Z" /></g><g transform="translate(31 102) scale(0.31) translate(-50 -50)" fill="#151515"><circle cx="50" cy="27" r="17" /><circle cx="34" cy="49" r="17" /><circle cx="66" cy="49" r="17" /><path d="M46 58 C45 70 37 78 31 85 L69 85 C63 78 55 70 54 58 Z" /></g><g transform="translate(69 102) scale(0.31) translate(-50 -50)" fill="#151515"><circle cx="50" cy="27" r="17" /><circle cx="34" cy="49" r="17" /><circle cx="66" cy="49" r="17" /><path d="M46 58 C45 70 37 78 31 85 L69 85 C63 78 55 70 54 58 Z" /></g>
</svg>