<?xml version="1.0" encoding="UTF-8"?>
<svg xmlns="http://www.w3.org/2000/svg" viewBox="0 0 100 140" role="img">
  <rect x="5" y="6" width="90" height="128" rx="13" fill="rgba(17,17,17,.12)" />
  <rect x="4" y="4" width="92" height="130" rx="13" fill="#fffdf8" stroke="#1e2f58" stroke-width="2.3" />
  <rect x="7" y="7" width="86" height="124" rx="11" fill="none" stroke="#d5b56b" stroke-width="1.15" />
  <rect x="11" y="11" width="78" height="116" rx="9" fill="none" stroke="rgba(30,47,88,.18)" stroke-width="1.1" />
  <g><text x="20" y="22" text-anchor="middle" dominant-baseline="middle" font-size="11" font-weight="900" fill="#cc2a2a">8</text><g fill="#cc2a2a"><g transform="translate(20 29) scale(0.15) translate(-50 -50)"><path d="M50 10 L82 50 L50 90 L18 50 Z" /></g></g></g><g transform="rotate(180 80 111)"><text x="80" y="111" text-anchor="middle" dominant-baseline="middle" font-size="11" font-weight="900" fill="#cc2a2a">8</text><g fill="#cc2a2a"><g transform="translate(80 118) scale(0.15) translate(-50 -50)"><path d="M50 10 L82 50 L50 90 L18 50 Z" /></g></g></g><g fill="#cc2a2a"><g transform="translate(31 24) scale(0.27) translate(-50 -50)"><path d="M50 10 L82 50 L50 90 L18 50 Z" /></g></g><g fill="#cc2a2a"><g transform="translate(69 24) scale(0.27) translate(-50 -50)"><path d="M50 10 L82 50 L50 90 L18 50 Z" /></g></g><g fill="#cc2a2a"><g transform="translate(31 46) scale(0.27) translate(-50 -50)"><path d="M50 10 L82 50 L50 90 L18 50 Z" /></g></g><g fill="#cc2a2a"><g transform="translate(69 46) scale(0.27) translate(-50 -50)"><path d="M50 10 L82 50 L50 90 L18 50 Z" /></g></g><g fill="#cc2a2a"><g transform="translate(31 92) scale(0.27) translate(-50 -50)"><path d="M50 10 L82 50 L50 90 L18 50 Z" /></g></g><g fill="#cc2a2a"><g transform="translate(69 92) scale(0.27) translate(-50 -50)"><path d="M50 10 L82 50 L50 90 L18 50 Z" /></g></g><g fill="#cc2a2a"><g transform="translate(31 114) scale(0.27) translate(-50 -50)"><path d="M50 10 L82 50 L50 90 L18 50 Z" /></g></g><g fill="#cc2a2a"><g transform="translate(69 114) scale(0.27) translate(-50 -50)"><path d="M50 10 L82 50 L50 90 L18 50 Z" /></g></g>
</svg>