<?xml version="1.0" encoding="UTF-8"?>
<svg xmlns="http://www.w3.org/2000/svg" viewBox="0 0 100 140" role="img">
  <rect x="5" y="6" width="90" height="128" rx="13" fill="rgba(17,17,17,.12)" />
  <rect x="4" y="4" width="92" height="130" rx="13" fill="#fffdf8" stroke="#1e2f58" stroke-width="2.3" />
  <rect x="7" y="7" width="86" height="124" rx="11" fill="none" stroke="#d5b56b" stroke-width="1.15" />
  <rect x="11" y="11" width="78" height="116" rx="9" fill="none" stroke="rgba(30,47,88,.18)" stroke-width="1.1" />
  <g><text x="20" y="22" text-anchor="middle" dominant-baseline="middle" font-size="11" font-weight="900" fill="#cc2a2a">9</text><g fill="#cc2a2a"><g transform="translate(20 29) scale(0.15) translate(-50 -50)"><path d="M50 84 C22 59 13 43 20 29 C25 18 39 17 50 32 C61 17 75 18 80 29 C87 43 78 59 50 84 Z" /></g></g></g><g transform="rotate(180 80 111)"><text x="80" y="111" text-anchor="middle" dominant-baseline="middle" font-size="11" font-weight="900" fill="#cc2a2a">9</text><g fill="#cc2a2a"><g transform="translate(80 118) scale(0.15) translate(-50 -50)"><path d="M50 84 C22 59 13 43 20 29 C25 18 39 17 50 32 C61 17 75 18 80 29 C87 43 78 59 50 84 Z" /></g></g></g><g fill="#cc2a2a"><g transform="translate(50 22) scale(0.24) translate(-50 -50)"><path d="M50 84 C22 59 13 43 20 29 C25 18 39 17 50 32 C61 17 75 18 80 29 C87 43 78 59 50 84 Z" /></g></g><g fill="#cc2a2a"><g transform="translate(31 36) scale(0.26) translate(-50 -50)"><path d="M50 84 C22 59 13 43 20 29 C25 18 39 17 50 32 C61 17 75 18 80 29 C87 43 78 59 50 84 Z" /></g></g><g fill="#cc2a2a"><g transform="translate(69 36) scale(0.26) translate(-50 -50)"><path d="M50 84 C22 59 13 43 20 29 C25 18 39 17 50 32 C61 17 75 18 80 29 C87 43 78 59 50 84 Z" /></g></g><g fill="#cc2a2a"><g transform="translate(31 58) scale(0.26) translate(-50 -50)"><path d="M50 84 C22 59 13 43 20 29 C25 18 39 17 50 32 C61 17 75 18 80 29 C87 43 78 59 50 84 Z" /></g></g><g fill="#cc2a2a"><g transform="translate(69 58) scale(0.26) translate(-50 -50)"><path d="M50 84 C22 59 13 43 20 29 C25 18 39 17 50 32 C61 17 75 18 80 29 C87 43 78 59 50 84 Z" /></g></g><g fill="#cc2a2a"><g transform="translate(50 70) scale(0.28) translate(-50 -50)"><path d="M50 84 C22 59 13 43 20 29 C25 18 39 17 50 32 C61 17 75 18 80 29 C87 43 78 59 50 84 Z" /></g></g><g fill="#cc2a2a"><g transform="translate(31 102) scale(0.26) translate(-50 -50)"><path d="M50 84 C22 59 13 43 20 29 C25 18 39 17 50 32 C61 17 75 18 80 29 C87 43 78 59 50 84 Z" /></g></g><g fill="#cc2a2a"><g transform="translate(69 102) scale(0.26) translate(-50 -50)"><path d="M50 84 C22 59 13 43 20 29 C25 18 39 17 50 32 C61 17 75 18 80 29 C87 43 78 59 50 84 Z" /></g></g><g fill="#cc2a2a"><g transform="translate(50 116) scale(0.24) translate(-50 -50)"><path d="M50 84 C22 59 13 43 20 29 C25 18 39 17 50 32 C61 17 75 18 80 29 C87 43 78 59 50 84 Z" /></g></g>
</svg>