<?xml version="1.0" encoding="UTF-8"?>
<svg xmlns="http://www.w3.org/2000/svg" viewBox="0 0 100 140" role="img">
  <rect x="5" y="6" width="90" height="128" rx="13" fill="rgba(17,17,17,.12)" />
  <rect x="4" y="4" width="92" height="130" rx="13" fill="#1f2f56" stroke="#d5b56b" stroke-width="2.3" />
  <rect x="9" y="9" width="82" height="120" rx="10" fill="none" stroke="#f7e2a8" stroke-width="1.1" />
  <rect x="14" y="14" width="72" height="110" rx="8" fill="none" stroke="#f7e2a8" stroke-width="0.9" stroke-dasharray="2 3" />
  <circle cx="50" cy="70" r="20" fill="none" stroke="#f7e2a8" stroke-width="1.2" />
  <path d="M50 48 L58 65 L77 67 L63 79 L67 97 L50 88 L33 97 L37 79 L23 67 L42 65 Z" fill="#cc2a2a" />
  <path d="M50 56 L56 68 L70 70 L60 79 L63 92 L50 85 L37 92 L40 79 L30 70 L44 68 Z" fill="#f7e2a8" />
</svg>