<?xml version="1.0" encoding="UTF-8"?>
<svg xmlns="http://www.w3.org/2000/svg" viewBox="0 0 100 140" role="img" aria-hidden="true">
  <rect x="5" y="5" width="90" height="130" rx="12" fill="#fffdfa" stroke="#1f2f56" stroke-width="2.6"/>
  <rect x="10" y="10" width="80" height="120" rx="9" fill="#1f2f56" stroke="#d8bc78" stroke-width="1.2"/>
  <rect x="16" y="16" width="68" height="108" rx="7" fill="none" stroke="#fff0c5" stroke-width="1"/>
  <path d="M50 28 L58 45 L77 48 L63 61 L67 80 L50 71 L33 80 L37 61 L23 48 L42 45 Z" fill="#c53a2f"/>
  <path d="M50 34 L56 47 L70 49 L60 58 L63 72 L50 65 L37 72 L40 58 L30 49 L44 47 Z" fill="#fff0c5"/>
  <circle cx="50" cy="70" r="20" fill="none" stroke="#fff0c5" stroke-width="1.2"/>
  <circle cx="50" cy="70" r="11" fill="none" stroke="#fff0c5" stroke-width="1.2"/>
  <path d="M30 70 H70 M50 50 V90" stroke="#fff0c5" stroke-width="1" opacity=".7"/>
</svg>