<?xml version="1.0" encoding="UTF-8"?>
<svg xmlns="http://www.w3.org/2000/svg" viewBox="0 0 100 140" role="img" aria-hidden="true">
  
  <rect x="5" y="5" width="90" height="130" rx="12" fill="#fffdfa" stroke="#151515" stroke-width="2.6"/>
  <rect x="10" y="10" width="80" height="120" rx="9" fill="none" stroke="#151515" stroke-opacity="0.17" stroke-width="1.1"/>
  
  <g><text x="20" y="22" text-anchor="middle" dominant-baseline="middle" font-size="11" font-weight="800" fill="#151515" font-family="Arial, Helvetica, sans-serif">J</text><g transform="translate(20 32) scale(0.14) translate(-50 -50)" fill="#151515"><path d="M50 13 L60 39 L88 39 L65 56 L74 84 L50 67 L26 84 L35 56 L12 39 L40 39 Z" /></g></g><g transform="rotate(180 80 111)"><text x="80" y="111" text-anchor="middle" dominant-baseline="middle" font-size="11" font-weight="800" fill="#151515" font-family="Arial, Helvetica, sans-serif">J</text><g transform="translate(80 121) scale(0.14) translate(-50 -50)" fill="#151515"><path d="M50 13 L60 39 L88 39 L65 56 L74 84 L50 67 L26 84 L35 56 L12 39 L40 39 Z" /></g></g><g>
    <g stroke="#151515" fill="none" stroke-width="1.5" stroke-linecap="round" stroke-linejoin="round">
      <path d="M40 76 C41 64 44 54 50 48 C56 54 59 64 60 76"/>
      <path d="M38 46 l5 -10 l7 7 l6 -8 l5 11"/>
      <circle cx="38" cy="46" r="1.9" fill="#c53a2f" stroke="none"/>
      <circle cx="50" cy="42" r="1.9" fill="#d4b25f" stroke="none"/>
      <circle cx="62" cy="46" r="1.9" fill="#c53a2f" stroke="none"/>
      <circle cx="46" cy="58" r="1.1" fill="#151515" stroke="none"/><circle cx="54" cy="58" r="1.1" fill="#151515" stroke="none"/>
      <path d="M45 63 c3 3 7 3 10 0"/>
      <path d="M42 68 c5 3 11 3 16 0"/>
      <path d="M41 76 c3 2 6 3 9 3 c3 0 6 -1 9 -3"/>
    </g></g><g transform="rotate(180 50 70)">
    <g stroke="#151515" fill="none" stroke-width="1.5" stroke-linecap="round" stroke-linejoin="round">
      <path d="M40 76 C41 64 44 54 50 48 C56 54 59 64 60 76"/>
      <path d="M38 46 l5 -10 l7 7 l6 -8 l5 11"/>
      <circle cx="38" cy="46" r="1.9" fill="#c53a2f" stroke="none"/>
      <circle cx="50" cy="42" r="1.9" fill="#d4b25f" stroke="none"/>
      <circle cx="62" cy="46" r="1.9" fill="#c53a2f" stroke="none"/>
      <circle cx="46" cy="58" r="1.1" fill="#151515" stroke="none"/><circle cx="54" cy="58" r="1.1" fill="#151515" stroke="none"/>
      <path d="M45 63 c3 3 7 3 10 0"/>
      <path d="M42 68 c5 3 11 3 16 0"/>
      <path d="M41 76 c3 2 6 3 9 3 c3 0 6 -1 9 -3"/>
    </g></g><text x="50" y="72" text-anchor="middle" font-size="8.2" font-weight="800" letter-spacing=".22em" fill="#1f2f56" font-family="Arial, Helvetica, sans-serif">JOKER</text>
</svg>