<?xml version="1.0" encoding="UTF-8"?>
<svg xmlns="http://www.w3.org/2000/svg" viewBox="0 0 100 140" role="img" aria-hidden="true">
  
  <rect x="5" y="5" width="90" height="130" rx="12" fill="#fffdfa" stroke="#151515" stroke-width="2.6"/>
  <rect x="10" y="10" width="80" height="120" rx="9" fill="none" stroke="#151515" stroke-opacity="0.17" stroke-width="1.1"/>
  
  <g><text x="20" y="22" text-anchor="middle" dominant-baseline="middle" font-size="11" font-weight="800" fill="#151515" font-family="Arial, Helvetica, sans-serif">J</text><g transform="translate(20 32) scale(0.14) translate(-50 -50)" fill="#151515"><path d="M50 13 C24 36 15 52 24 66 C31 76 43 72 48 62 C47 74 39 82 33 88 L67 88 C61 82 53 74 52 62 C57 72 69 76 76 66 C85 52 76 36 50 13 Z" /></g></g><g transform="rotate(180 80 111)"><text x="80" y="111" text-anchor="middle" dominant-baseline="middle" font-size="11" font-weight="800" fill="#151515" font-family="Arial, Helvetica, sans-serif">J</text><g transform="translate(80 121) scale(0.14) translate(-50 -50)" fill="#151515"><path d="M50 13 C24 36 15 52 24 66 C31 76 43 72 48 62 C47 74 39 82 33 88 L67 88 C61 82 53 74 52 62 C57 72 69 76 76 66 C85 52 76 36 50 13 Z" /></g></g><g>
  <g stroke="#151515" fill="none" stroke-width="1.5" stroke-linecap="round" stroke-linejoin="round">
    <path d="M43 58 C44 45 49 34 58 29 C63 26 69 28 72 33"/>
    <path d="M51 58 C53 49 58 41 63 37 C60 44 60 51 61 58"/>
    <path d="M46 29 C52 25 58 24 64 28"/>
    <path d="M45 28 l6 -6 l5 4 l4 -5 l4 7"/>
    <path d="M55 39 c2 2 4 3 6 3 c2 0 4 -1 5 -3"/>
    <circle cx="57" cy="40" r="1.1" fill="#151515" stroke="none"/><circle cx="64" cy="40" r="1.1" fill="#151515" stroke="none"/>
    <path d="M56 47 c3 2 5 2 7 0"/>
    <path d="M45 59 C51 57 57 57 65 60"/>
    <path d="M46 65 C53 68 59 70 66 72"/>
    <path d="M47 71 C54 75 60 78 67 81"/>
    <path d="M31 76 V33"/>
    <path d="M27 76 H35"/>
    <path d="M31 33 l-5 6 l5 -2 l5 2 z"/>
    <g transform="translate(31 26) scale(0.12) translate(-50 -50)" fill="#151515"><path d="M50 13 C24 36 15 52 24 66 C31 76 43 72 48 62 C47 74 39 82 33 88 L67 88 C61 82 53 74 52 62 C57 72 69 76 76 66 C85 52 76 36 50 13 Z" /></g>
    <path d="M79 77 C77 63 75 49 74 35"/>
    <path d="M70 49 c3 -4 6 -6 9 -6"/>
    <path d="M70 58 c3 -3 6 -5 10 -5"/>
    <g transform="translate(80 84) scale(0.12) translate(-50 -50)" fill="#151515"><path d="M50 13 C24 36 15 52 24 66 C31 76 43 72 48 62 C47 74 39 82 33 88 L67 88 C61 82 53 74 52 62 C57 72 69 76 76 66 C85 52 76 36 50 13 Z" /></g>
  </g></g><g transform="rotate(180 50 70)">
  <g stroke="#151515" fill="none" stroke-width="1.5" stroke-linecap="round" stroke-linejoin="round">
    <path d="M43 58 C44 45 49 34 58 29 C63 26 69 28 72 33"/>
    <path d="M51 58 C53 49 58 41 63 37 C60 44 60 51 61 58"/>
    <path d="M46 29 C52 25 58 24 64 28"/>
    <path d="M45 28 l6 -6 l5 4 l4 -5 l4 7"/>
    <path d="M55 39 c2 2 4 3 6 3 c2 0 4 -1 5 -3"/>
    <circle cx="57" cy="40" r="1.1" fill="#151515" stroke="none"/><circle cx="64" cy="40" r="1.1" fill="#151515" stroke="none"/>
    <path d="M56 47 c3 2 5 2 7 0"/>
    <path d="M45 59 C51 57 57 57 65 60"/>
    <path d="M46 65 C53 68 59 70 66 72"/>
    <path d="M47 71 C54 75 60 78 67 81"/>
    <path d="M31 76 V33"/>
    <path d="M27 76 H35"/>
    <path d="M31 33 l-5 6 l5 -2 l5 2 z"/>
    <g transform="translate(31 26) scale(0.12) translate(-50 -50)" fill="#151515"><path d="M50 13 C24 36 15 52 24 66 C31 76 43 72 48 62 C47 74 39 82 33 88 L67 88 C61 82 53 74 52 62 C57 72 69 76 76 66 C85 52 76 36 50 13 Z" /></g>
    <path d="M79 77 C77 63 75 49 74 35"/>
    <path d="M70 49 c3 -4 6 -6 9 -6"/>
    <path d="M70 58 c3 -3 6 -5 10 -5"/>
    <g transform="translate(80 84) scale(0.12) translate(-50 -50)" fill="#151515"><path d="M50 13 C24 36 15 52 24 66 C31 76 43 72 48 62 C47 74 39 82 33 88 L67 88 C61 82 53 74 52 62 C57 72 69 76 76 66 C85 52 76 36 50 13 Z" /></g>
  </g></g>
</svg>