<?xml version="1.0" encoding="UTF-8"?>
<svg xmlns="http://www.w3.org/2000/svg" viewBox="0 0 100 140" role="img" aria-hidden="true">
  
  <rect x="5" y="5" width="90" height="130" rx="12" fill="#fffdfa" stroke="#151515" stroke-width="2.6"/>
  <rect x="10" y="10" width="80" height="120" rx="9" fill="none" stroke="#151515" stroke-opacity="0.17" stroke-width="1.1"/>
  
  <g><text x="20" y="22" text-anchor="middle" dominant-baseline="middle" font-size="11" font-weight="800" fill="#151515" font-family="Arial, Helvetica, sans-serif">K</text><g transform="translate(20 32) scale(0.14) translate(-50 -50)" fill="#151515"><path d="M50 13 C24 36 15 52 24 66 C31 76 43 72 48 62 C47 74 39 82 33 88 L67 88 C61 82 53 74 52 62 C57 72 69 76 76 66 C85 52 76 36 50 13 Z" /></g></g><g transform="rotate(180 80 111)"><text x="80" y="111" text-anchor="middle" dominant-baseline="middle" font-size="11" font-weight="800" fill="#151515" font-family="Arial, Helvetica, sans-serif">K</text><g transform="translate(80 121) scale(0.14) translate(-50 -50)" fill="#151515"><path d="M50 13 C24 36 15 52 24 66 C31 76 43 72 48 62 C47 74 39 82 33 88 L67 88 C61 82 53 74 52 62 C57 72 69 76 76 66 C85 52 76 36 50 13 Z" /></g></g><g>
  <g stroke="#151515" fill="none" stroke-width="1.5" stroke-linecap="round" stroke-linejoin="round">
    <path d="M44 58 C45 44 49 33 58 29 C64 26 69 27 73 32"/>
    <path d="M52 58 C54 48 59 40 64 36 C60 43 60 50 61 58"/>
    <path d="M58 34 C55 37 53 40 53 44 C56 46 61 47 66 47"/>
    <path d="M45 28 h20 l-2 -5 l-4 2 l-4 -4 l-4 4 l-4 -2 z"/>
    <circle cx="48" cy="24" r="1.4" fill="#151515" stroke="none"/><circle cx="55" cy="21" r="1.4" fill="#151515" stroke="none"/><circle cx="62" cy="24" r="1.4" fill="#151515" stroke="none"/>
    <circle cx="57" cy="40" r="1.1" fill="#151515" stroke="none"/><circle cx="64" cy="40" r="1.1" fill="#151515" stroke="none"/>
    <path d="M55 45 c2 2 4 3 5 3 c2 0 3 -1 5 -3"/>
    <path d="M54 49 c3 2 5 2 7 0"/>
    <path d="M54 53 c2 3 4 4 7 4 c3 0 5 -1 7 -4"/>
    <path d="M44 59 C50 57 56 57 64 60"/>
    <path d="M46 65 C52 67 58 69 65 70"/>
    <path d="M47 71 C53 74 59 76 67 78"/>
    <path d="M31 76 V29"/>
    <path d="M27 76 H35"/>
    <path d="M31 29 l-5 7 l5 -2 l5 2 z"/>
    <g transform="translate(28 82) scale(0.12) translate(-50 -50)" fill="#151515"><path d="M50 13 C24 36 15 52 24 66 C31 76 43 72 48 62 C47 74 39 82 33 88 L67 88 C61 82 53 74 52 62 C57 72 69 76 76 66 C85 52 76 36 50 13 Z" /></g>
    <path d="M79 82 V25"/>
    <path d="M75 29 L79 22 L83 29"/>
    <path d="M75 82 H83"/>
    <g transform="translate(80 88) scale(0.12) translate(-50 -50)" fill="#151515"><path d="M50 13 C24 36 15 52 24 66 C31 76 43 72 48 62 C47 74 39 82 33 88 L67 88 C61 82 53 74 52 62 C57 72 69 76 76 66 C85 52 76 36 50 13 Z" /></g>
  </g></g><g transform="rotate(180 50 70)">
  <g stroke="#151515" fill="none" stroke-width="1.5" stroke-linecap="round" stroke-linejoin="round">
    <path d="M44 58 C45 44 49 33 58 29 C64 26 69 27 73 32"/>
    <path d="M52 58 C54 48 59 40 64 36 C60 43 60 50 61 58"/>
    <path d="M58 34 C55 37 53 40 53 44 C56 46 61 47 66 47"/>
    <path d="M45 28 h20 l-2 -5 l-4 2 l-4 -4 l-4 4 l-4 -2 z"/>
    <circle cx="48" cy="24" r="1.4" fill="#151515" stroke="none"/><circle cx="55" cy="21" r="1.4" fill="#151515" stroke="none"/><circle cx="62" cy="24" r="1.4" fill="#151515" stroke="none"/>
    <circle cx="57" cy="40" r="1.1" fill="#151515" stroke="none"/><circle cx="64" cy="40" r="1.1" fill="#151515" stroke="none"/>
    <path d="M55 45 c2 2 4 3 5 3 c2 0 3 -1 5 -3"/>
    <path d="M54 49 c3 2 5 2 7 0"/>
    <path d="M54 53 c2 3 4 4 7 4 c3 0 5 -1 7 -4"/>
    <path d="M44 59 C50 57 56 57 64 60"/>
    <path d="M46 65 C52 67 58 69 65 70"/>
    <path d="M47 71 C53 74 59 76 67 78"/>
    <path d="M31 76 V29"/>
    <path d="M27 76 H35"/>
    <path d="M31 29 l-5 7 l5 -2 l5 2 z"/>
    <g transform="translate(28 82) scale(0.12) translate(-50 -50)" fill="#151515"><path d="M50 13 C24 36 15 52 24 66 C31 76 43 72 48 62 C47 74 39 82 33 88 L67 88 C61 82 53 74 52 62 C57 72 69 76 76 66 C85 52 76 36 50 13 Z" /></g>
    <path d="M79 82 V25"/>
    <path d="M75 29 L79 22 L83 29"/>
    <path d="M75 82 H83"/>
    <g transform="translate(80 88) scale(0.12) translate(-50 -50)" fill="#151515"><path d="M50 13 C24 36 15 52 24 66 C31 76 43 72 48 62 C47 74 39 82 33 88 L67 88 C61 82 53 74 52 62 C57 72 69 76 76 66 C85 52 76 36 50 13 Z" /></g>
  </g></g>
</svg>