<?xml version="1.0" encoding="UTF-8"?>
<svg xmlns="http://www.w3.org/2000/svg" viewBox="0 0 100 140" role="img">
  <rect x="5" y="6" width="90" height="128" rx="13" fill="rgba(17,17,17,.12)" />
  <rect x="4" y="4" width="92" height="130" rx="13" fill="#fffdf8" stroke="#1e2f58" stroke-width="2.3" />
  <rect x="7" y="7" width="86" height="124" rx="11" fill="none" stroke="#d5b56b" stroke-width="1.15" />
  <rect x="11" y="11" width="78" height="116" rx="9" fill="none" stroke="rgba(30,47,88,.18)" stroke-width="1.1" />
  <g><text x="20" y="22" text-anchor="middle" dominant-baseline="middle" font-size="11" font-weight="900" fill="#181818">Q</text><g fill="#181818"><g transform="translate(20 29) scale(0.15) translate(-50 -50)"><path d="M50 13 C24 36 15 52 24 66 C31 76 43 72 48 62 C47 74 39 82 33 88 L67 88 C61 82 53 74 52 62 C57 72 69 76 76 66 C85 52 76 36 50 13 Z" /></g></g></g><g transform="rotate(180 80 111)"><text x="80" y="111" text-anchor="middle" dominant-baseline="middle" font-size="11" font-weight="900" fill="#181818">Q</text><g fill="#181818"><g transform="translate(80 118) scale(0.15) translate(-50 -50)"><path d="M50 13 C24 36 15 52 24 66 C31 76 43 72 48 62 C47 74 39 82 33 88 L67 88 C61 82 53 74 52 62 C57 72 69 76 76 66 C85 52 76 36 50 13 Z" /></g></g></g>
    <rect x="24" y="34" width="52" height="72" rx="13" fill="#f7f1e4" stroke="#d8bc78" stroke-width="1" />
    <rect x="28" y="38" width="44" height="64" rx="10" fill="rgba(255,255,255,.55)" stroke="rgba(30,47,88,.12)" stroke-width=".8" />
    <g fill="#181818"><g transform="translate(50 51) scale(0.18) translate(-50 -50)"><path d="M50 13 C24 36 15 52 24 66 C31 76 43 72 48 62 C47 74 39 82 33 88 L67 88 C61 82 53 74 52 62 C57 72 69 76 76 66 C85 52 76 36 50 13 Z" /></g></g>
    <text x="50" y="78" text-anchor="middle" dominant-baseline="middle" font-size="28" font-weight="900" fill="#181818">Q</text>
    <text x="50" y="95" text-anchor="middle" font-size="5.8" font-weight="900" letter-spacing=".18em" fill="#1f2f56">QUEEN</text>
    <path d="M34 88 H66" fill="none" stroke="rgba(30,47,88,.24)" stroke-width="1" stroke-linecap="round"/>
    <g fill="#181818"><g transform="translate(38 95) scale(0.12) translate(-50 -50)"><path d="M50 13 C24 36 15 52 24 66 C31 76 43 72 48 62 C47 74 39 82 33 88 L67 88 C61 82 53 74 52 62 C57 72 69 76 76 66 C85 52 76 36 50 13 Z" /></g><g transform="translate(62 95) scale(0.12) translate(-50 -50)"><path d="M50 13 C24 36 15 52 24 66 C31 76 43 72 48 62 C47 74 39 82 33 88 L67 88 C61 82 53 74 52 62 C57 72 69 76 76 66 C85 52 76 36 50 13 Z" /></g></g>
</svg>