<?xml version="1.0" encoding="UTF-8"?>
<svg xmlns="http://www.w3.org/2000/svg" viewBox="0 0 100 140" role="img" aria-hidden="true">
  
  <rect x="5" y="5" width="90" height="130" rx="12" fill="#fffdfa" stroke="#151515" stroke-width="2.6"/>
  <rect x="10" y="10" width="80" height="120" rx="9" fill="none" stroke="#151515" stroke-opacity="0.17" stroke-width="1.1"/>
  
  <g><text x="20" y="22" text-anchor="middle" dominant-baseline="middle" font-size="11" font-weight="800" fill="#151515" font-family="Arial, Helvetica, sans-serif">Q</text><g transform="translate(20 32) scale(0.14) translate(-50 -50)" fill="#151515"><path d="M50 13 C24 36 15 52 24 66 C31 76 43 72 48 62 C47 74 39 82 33 88 L67 88 C61 82 53 74 52 62 C57 72 69 76 76 66 C85 52 76 36 50 13 Z" /></g></g><g transform="rotate(180 80 111)"><text x="80" y="111" text-anchor="middle" dominant-baseline="middle" font-size="11" font-weight="800" fill="#151515" font-family="Arial, Helvetica, sans-serif">Q</text><g transform="translate(80 121) scale(0.14) translate(-50 -50)" fill="#151515"><path d="M50 13 C24 36 15 52 24 66 C31 76 43 72 48 62 C47 74 39 82 33 88 L67 88 C61 82 53 74 52 62 C57 72 69 76 76 66 C85 52 76 36 50 13 Z" /></g></g><g>
  <g stroke="#151515" fill="none" stroke-width="1.5" stroke-linecap="round" stroke-linejoin="round">
    <path d="M42 58 C42 45 47 34 56 29 C62 26 67 27 71 31"/>
    <path d="M49 58 C51 47 57 39 63 35 C58 43 57 51 59 58"/>
    <path d="M58 33 C55 35 53 38 52 42 C55 44 59 45 64 45"/>
    <path d="M53 38 C57 37 60 38 62 40"/>
    <path d="M56 48 C59 49 62 49 64 47"/>
    <path d="M47 28 h18 l-2 -5 l-4 2 l-3 -4 l-4 4 l-4 -2 z"/>
    <circle cx="50" cy="24" r="1.4" fill="#151515" stroke="none"/><circle cx="56" cy="21" r="1.4" fill="#151515" stroke="none"/><circle cx="62" cy="24" r="1.4" fill="#151515" stroke="none"/>
    <path d="M44 59 C50 56 56 56 64 59"/>
    <path d="M48 63 C53 60 58 60 62 63"/>
    <path d="M43 64 C49 68 55 71 61 73"/>
    <path d="M40 69 C46 73 53 77 60 80"/>
    <path d="M38 74 C45 79 53 83 61 87"/>
    <path d="M36 79 C44 84 52 88 60 92"/>
    <path d="M31 74 C33 61 34 48 34 34"/>
    <g transform="translate(31 28) scale(0.14) translate(-50 -50)" fill="#151515"><path d="M50 13 C24 36 15 52 24 66 C31 76 43 72 48 62 C47 74 39 82 33 88 L67 88 C61 82 53 74 52 62 C57 72 69 76 76 66 C85 52 76 36 50 13 Z" /></g>
    <g stroke="#151515" fill="none" stroke-width="1.25" stroke-linecap="round" stroke-linejoin="round">
    <path d="M74 62 C73 54 75 46 74 38"/>
    <path d="M74 53 c-5 -2 -7 -4 -9 -8"/>
    <path d="M74 47 c5 -2 7 -4 9 -8"/>
    <circle cx="74" cy="36" r="2.2"/>
    <path d="M67 36 a7 7 0 0 1 14 0 a7 7 0 0 1 -14 0z"/>
  </g>
  </g></g><g transform="rotate(180 50 70)">
  <g stroke="#151515" fill="none" stroke-width="1.5" stroke-linecap="round" stroke-linejoin="round">
    <path d="M42 58 C42 45 47 34 56 29 C62 26 67 27 71 31"/>
    <path d="M49 58 C51 47 57 39 63 35 C58 43 57 51 59 58"/>
    <path d="M58 33 C55 35 53 38 52 42 C55 44 59 45 64 45"/>
    <path d="M53 38 C57 37 60 38 62 40"/>
    <path d="M56 48 C59 49 62 49 64 47"/>
    <path d="M47 28 h18 l-2 -5 l-4 2 l-3 -4 l-4 4 l-4 -2 z"/>
    <circle cx="50" cy="24" r="1.4" fill="#151515" stroke="none"/><circle cx="56" cy="21" r="1.4" fill="#151515" stroke="none"/><circle cx="62" cy="24" r="1.4" fill="#151515" stroke="none"/>
    <path d="M44 59 C50 56 56 56 64 59"/>
    <path d="M48 63 C53 60 58 60 62 63"/>
    <path d="M43 64 C49 68 55 71 61 73"/>
    <path d="M40 69 C46 73 53 77 60 80"/>
    <path d="M38 74 C45 79 53 83 61 87"/>
    <path d="M36 79 C44 84 52 88 60 92"/>
    <path d="M31 74 C33 61 34 48 34 34"/>
    <g transform="translate(31 28) scale(0.14) translate(-50 -50)" fill="#151515"><path d="M50 13 C24 36 15 52 24 66 C31 76 43 72 48 62 C47 74 39 82 33 88 L67 88 C61 82 53 74 52 62 C57 72 69 76 76 66 C85 52 76 36 50 13 Z" /></g>
    <g stroke="#151515" fill="none" stroke-width="1.25" stroke-linecap="round" stroke-linejoin="round">
    <path d="M74 62 C73 54 75 46 74 38"/>
    <path d="M74 53 c-5 -2 -7 -4 -9 -8"/>
    <path d="M74 47 c5 -2 7 -4 9 -8"/>
    <circle cx="74" cy="36" r="2.2"/>
    <path d="M67 36 a7 7 0 0 1 14 0 a7 7 0 0 1 -14 0z"/>
  </g>
  </g></g>
</svg>